{
  "accessors": [
    {
      "bufferView": 2,
      "componentType": 5126,
      "count": 65534,
      "max": [
        0.711338996887207,
        2.888472080230713,
        1.5754375457763672
      ],
      "min": [
        -1.1767879724502563,
        -2.4524309635162354,
        -0.4944460093975067
      ],
      "type": "VEC3"
    },
    {
      "bufferView": 2,
      "byteOffset": 786408,
      "componentType": 5126,
      "count": 65534,
      "max": [
        0.999821126461029,
        0.9999663829803467,
        0.9999425411224365
      ],
      "min": [
        -0.9999992847442627,
        -0.9999375939369202,
        -0.9999969005584717
      ],
      "type": "VEC3"
    },
    {
      "bufferView": 1,
      "componentType": 5126,
      "count": 65534,
      "max": [
        0.9981746673583984,
        0.9997069835662842
      ],
      "min": [
        0.0015360000543296337,
        3.898143768310547e-05
      ],
      "type": "VEC2"
    },
    {
      "bufferView": 0,
      "componentType": 5125,
      "count": 65862,
      "type": "SCALAR"
    },
    {
      "bufferView": 2,
      "byteOffset": 1572816,
      "componentType": 5126,
      "count": 65533,
      "max": [
        0.6506069898605347,
        2.815800905227661,
        1.5560057163238525
      ],
      "min": [
        -1.1727759838104248,
        -2.490370988845825,
        -0.6400399804115295
      ],
      "type": "VEC3"
    },
    {
      "bufferView": 2,
      "byteOffset": 2359212,
      "componentType": 5126,
      "count": 65533,
      "max": [
        0.9998643398284912,
        0.9999706745147705,
        0.999984860420227
      ],
      "min": [
        -0.9999986290931702,
        -0.9999383687973022,
        -0.9999926686286926
      ],
      "type": "VEC3"
    },
    {
      "bufferView": 1,
      "byteOffset": 524272,
      "componentType": 5126,
      "count": 65533,
      "max": [
        0.9975990056991577,
        0.9999939799308777
      ],
      "min": [
        0.0005499999970197678,
        2.8014183044433594e-05
      ],
      "type": "VEC2"
    },
    {
      "bufferView": 0,
      "byteOffset": 263448,
      "componentType": 5125,
      "count": 65547,
      "type": "SCALAR"
    },
    {
      "bufferView": 2,
      "byteOffset": 3145608,
      "componentType": 5126,
      "count": 65534,
      "max": [
        0.6691129803657532,
        2.882749080657959,
        1.5582820177078247
      ],
      "min": [
        -1.1803239583969116,
        -2.490370988845825,
        -0.5363550186157227
      ],
      "type": "VEC3"
    },
    {
      "bufferView": 2,
      "byteOffset": 3932016,
      "componentType": 5126,
      "count": 65534,
      "max": [
        0.9998121857643127,
        0.9999629259109497,
        0.9998677372932434
      ],
      "min": [
        -0.9999986886978149,
        -0.9999837279319763,
        -0.999974250793457
      ],
      "type": "VEC3"
    },
    {
      "bufferView": 1,
      "byteOffset": 1048536,
      "componentType": 5126,
      "count": 65534,
      "max": [
        0.9982150197029114,
        0.9999560117721558
      ],
      "min": [
        0.00018699999782256782,
        5.0067901611328125e-06
      ],
      "type": "VEC2"
    },
    {
      "bufferView": 0,
      "byteOffset": 525636,
      "componentType": 5125,
      "count": 65652,
      "type": "SCALAR"
    },
    {
      "bufferView": 2,
      "byteOffset": 4718424,
      "componentType": 5126,
      "count": 65532,
      "max": [
        0.6770060062408447,
        2.815171003341675,
        1.5750280618667603
      ],
      "min": [
        -1.1831860542297363,
        -2.2478280067443848,
        -0.3728500008583069
      ],
      "type": "VEC3"
    },
    {
      "bufferView": 2,
      "byteOffset": 5504808,
      "componentType": 5126,
      "count": 65532,
      "max": [
        0.999961793422699,
        0.9999112486839294,
        0.9997802376747131
      ],
      "min": [
        -0.9998331069946289,
        -0.9999837279319763,
        -0.9999915957450867
      ],
      "type": "VEC3"
    },
    {
      "bufferView": 1,
      "byteOffset": 1572808,
      "componentType": 5126,
      "count": 65532,
      "max": [
        0.9982159733772278,
        0.9997190237045288
      ],
      "min": [
        0.003926999866962433,
        0.00014102458953857422
      ],
      "type": "VEC2"
    },
    {
      "bufferView": 0,
      "byteOffset": 788244,
      "componentType": 5125,
      "count": 65640,
      "type": "SCALAR"
    },
    {
      "bufferView": 2,
      "byteOffset": 6291192,
      "componentType": 5126,
      "count": 65533,
      "max": [
        0.6652370095252991,
        2.811199903488159,
        1.5753173828125
      ],
      "min": [
        -1.1725870370864868,
        -2.4784369468688965,
        -0.6709970235824585
      ],
      "type": "VEC3"
    },
    {
      "bufferView": 2,
      "byteOffset": 7077588,
      "componentType": 5126,
      "count": 65533,
      "max": [
        0.9998414516448975,
        0.9999943375587463,
        0.9999844431877136
      ],
      "min": [
        -0.9999923706054688,
        -0.999911904335022,
        -0.9999945759773254
      ],
      "type": "VEC3"
    },
    {
      "bufferView": 1,
      "byteOffset": 2097064,
      "componentType": 5126,
      "count": 65533,
      "max": [
        0.9880989789962769,
        0.9999759793281555
      ],
      "min": [
        0.002945000072941184,
        2.09808349609375e-05
      ],
      "type": "VEC2"
    },
    {
      "bufferView": 0,
      "byteOffset": 1050804,
      "componentType": 5125,
      "count": 65589,
      "type": "SCALAR"
    },
    {
      "bufferView": 2,
      "byteOffset": 7863984,
      "componentType": 5126,
      "count": 57293,
      "max": [
        0.6523720026016235,
        2.8902459144592285,
        1.5742409229278564
      ],
      "min": [
        -1.1769750118255615,
        -2.4173059463500977,
        -0.3034430146217346
      ],
      "type": "VEC3"
    },
    {
      "bufferView": 2,
      "byteOffset": 8551500,
      "componentType": 5126,
      "count": 57293,
      "max": [
        0.9992574453353882,
        0.9997373819351196,
        0.9996405839920044
      ],
      "min": [
        -0.9998769760131836,
        -0.9999517798423767,
        -0.9999898672103882
      ],
      "type": "VEC3"
    },
    {
      "bufferView": 1,
      "byteOffset": 2621328,
      "componentType": 5126,
      "count": 57293,
      "max": [
        0.9863359928131104,
        0.9922559857368469
      ],
      "min": [
        0.008346999995410442,
        0.003068983554840088
      ],
      "type": "VEC2"
    },
    {
      "bufferView": 0,
      "byteOffset": 1313160,
      "componentType": 5125,
      "count": 57339,
      "type": "SCALAR"
    }
  ],
  "asset": {
    "extras": {
      "author": "𝕣𝕠𝕔𝕜𝕟𝕣𝕠𝕕𝕖𝕟𝕥 (https://sketchfab.com/rocknrodent)",
      "license": "CC-BY-NC-SA-4.0 (http://creativecommons.org/licenses/by-nc-sa/4.0/)",
      "source": "https://sketchfab.com/3d-models/vintage-fire-truck-polycam-f4bcb90930b948f1afcbcc30bd626aa3",
      "title": "Vintage Fire Truck - Polycam"
    },
    "generator": "Sketchfab-14.64.0",
    "version": "2.0"
  },
  "bufferViews": [
    {
      "buffer": 0,
      "byteLength": 1542516,
      "name": "floatBufferViews",
      "target": 34963
    },
    {
      "buffer": 0,
      "byteLength": 3079672,
      "byteOffset": 1542516,
      "byteStride": 8,
      "name": "floatBufferViews",
      "target": 34962
    },
    {
      "buffer": 0,
      "byteLength": 9239016,
      "byteOffset": 4622188,
      "byteStride": 12,
      "name": "floatBufferViews",
      "target": 34962
    }
  ],
  "buffers": [
    {
      "byteLength": 13861204,
      "uri": "scene.bin"
    }
  ],
  "extensionsUsed": [
    "KHR_materials_unlit"
  ],
  "images": [
    {
      "uri": "textures/poly_0_baseColor.jpeg"
    }
  ],
  "materials": [
    {
      "doubleSided": true,
      "extensions": {
        "KHR_materials_unlit": {}
      },
      "name": "poly_0",
      "pbrMetallicRoughness": {
        "baseColorTexture": {
          "index": 0
        },
        "metallicFactor": 0.0
      }
    }
  ],
  "meshes": [
    {
      "name": "Object_0",
      "primitives": [
        {
          "attributes": {
            "NORMAL": 1,
            "POSITION": 0,
            "TEXCOORD_0": 2
          },
          "indices": 3,
          "material": 0,
          "mode": 4
        }
      ]
    },
    {
      "name": "Object_1",
      "primitives": [
        {
          "attributes": {
            "NORMAL": 5,
            "POSITION": 4,
            "TEXCOORD_0": 6
          },
          "indices": 7,
          "material": 0,
          "mode": 4
        }
      ]
    },
    {
      "name": "Object_2",
      "primitives": [
        {
          "attributes": {
            "NORMAL": 9,
            "POSITION": 8,
            "TEXCOORD_0": 10
          },
          "indices": 11,
          "material": 0,
          "mode": 4
        }
      ]
    },
    {
      "name": "Object_3",
      "primitives": [
        {
          "attributes": {
            "NORMAL": 13,
            "POSITION": 12,
            "TEXCOORD_0": 14
          },
          "indices": 15,
          "material": 0,
          "mode": 4
        }
      ]
    },
    {
      "name": "Object_4",
      "primitives": [
        {
          "attributes": {
            "NORMAL": 17,
            "POSITION": 16,
            "TEXCOORD_0": 18
          },
          "indices": 19,
          "material": 0,
          "mode": 4
        }
      ]
    },
    {
      "name": "Object_5",
      "primitives": [
        {
          "attributes": {
            "NORMAL": 21,
            "POSITION": 20,
            "TEXCOORD_0": 22
          },
          "indices": 23,
          "material": 0,
          "mode": 4
        }
      ]
    }
  ],
  "nodes": [
    {
      "children": [
        1
      ],
      "matrix": [
        1.0,
        0.0,
        0.0,
        0.0,
        0.0,
        2.220446049250313e-16,
        -1.0,
        0.0,
        0.0,
        1.0,
        2.220446049250313e-16,
        0.0,
        0.0,
        0.0,
        0.0,
        1.0
      ],
      "name": "Sketchfab_model"
    },
    {
      "children": [
        2
      ],
      "name": "root"
    },
    {
      "children": [
        3
      ],
      "matrix": [
        1.0,
        0.0,
        0.0,
        0.0,
        0.0,
        2.220446049250313e-16,
        1.0,
        0.0,
        0.0,
        -1.0,
        2.220446049250313e-16,
        0.0,
        0.0,
        0.0,
        0.0,
        1.0
      ],
      "name": "GLTF_SceneRootNode"
    },
    {
      "children": [
        4,
        5,
        6,
        7,
        8,
        9
      ],
      "matrix": [
        0.9998779920890128,
        0.011912375218828382,
        -0.010104269032932654,
        0.0,
        0.010103552038104105,
        0.00012036986005103945,
        0.9999489505706328,
        0.0,
        0.011912983348320466,
        -0.9999290378960611,
        -2.1289450202743865e-09,
        0.0,
        0.0,
        1.6114741563796997,
        0.0,
        1.0
      ],
      "name": "poly_0"
    },
    {
      "mesh": 0,
      "name": "Object_4"
    },
    {
      "mesh": 1,
      "name": "Object_5"
    },
    {
      "mesh": 2,
      "name": "Object_6"
    },
    {
      "mesh": 3,
      "name": "Object_7"
    },
    {
      "mesh": 4,
      "name": "Object_8"
    },
    {
      "mesh": 5,
      "name": "Object_9"
    }
  ],
  "samplers": [
    {
      "magFilter": 9729,
      "minFilter": 9987,
      "wrapS": 10497,
      "wrapT": 10497
    }
  ],
  "scene": 0,
  "scenes": [
    {
      "name": "Sketchfab_Scene",
      "nodes": [
        0
      ]
    }
  ],
  "textures": [
    {
      "sampler": 0,
      "source": 0
    }
  ]
}
