{
  "accessors": [
    {
      "bufferView": 2,
      "componentType": 5126,
      "count": 1422,
      "max": [
        0.09488827735185623,
        0.09678299725055695,
        0.11836101859807968
      ],
      "min": [
        -0.09600165486335754,
        -0.09418757259845734,
        -0.09409932047128677
      ],
      "type": "VEC3"
    },
    {
      "bufferView": 2,
      "byteOffset": 17064,
      "componentType": 5126,
      "count": 1422,
      "max": [
        0.999122679233551,
        0.9994338154792786,
        0.999609112739563
      ],
      "min": [
        -0.999122679233551,
        -0.9994337558746338,
        -0.9999430775642395
      ],
      "type": "VEC3"
    },
    {
      "bufferView": 3,
      "componentType": 5126,
      "count": 1422,
      "max": [
        0.9981756210327148,
        0.9997446537017822,
        0.8723499774932861,
        1.0
      ],
      "min": [
        -0.9990807771682739,
        -0.9998341202735901,
        -0.999805212020874,
        -1.0
      ],
      "type": "VEC4"
    },
    {
      "bufferView": 1,
      "componentType": 5126,
      "count": 1422,
      "max": [
        0.9989991188049316,
        0.9989991188049316
      ],
      "min": [
        0.0010010011028498411,
        0.0010010011028498411
      ],
      "type": "VEC2"
    },
    {
      "bufferView": 1,
      "byteOffset": 11376,
      "componentType": 5126,
      "count": 1422,
      "max": [
        0.9989991188049316,
        0.9989991188049316
      ],
      "min": [
        0.0010010011028498411,
        0.0010010011028498411
      ],
      "type": "VEC2"
    },
    {
      "bufferView": 1,
      "byteOffset": 22752,
      "componentType": 5126,
      "count": 1422,
      "max": [
        0.9989991188049316,
        0.9989991188049316
      ],
      "min": [
        0.0010010011028498411,
        0.0010010011028498411
      ],
      "type": "VEC2"
    },
    {
      "bufferView": 0,
      "componentType": 5125,
      "count": 3804,
      "type": "SCALAR"
    }
  ],
  "asset": {
    "extras": {
      "author": "Lobbyvictor (https://sketchfab.com/Lobbyvictor)",
      "license": "CC-BY-4.0 (http://creativecommons.org/licenses/by/4.0/)",
      "source": "https://sketchfab.com/3d-models/red-apple-lod1-11950211285b4ff7a8e1a3c2ce71fe1d",
      "title": "Red Apple LOD1"
    },
    "generator": "Sketchfab-14.60.0",
    "version": "2.0"
  },
  "bufferViews": [
    {
      "buffer": 0,
      "byteLength": 15216,
      "name": "floatBufferViews",
      "target": 34963
    },
    {
      "buffer": 0,
      "byteLength": 34128,
      "byteOffset": 15216,
      "byteStride": 8,
      "name": "floatBufferViews",
      "target": 34962
    },
    {
      "buffer": 0,
      "byteLength": 34128,
      "byteOffset": 49344,
      "byteStride": 12,
      "name": "floatBufferViews",
      "target": 34962
    },
    {
      "buffer": 0,
      "byteLength": 22752,
      "byteOffset": 83472,
      "byteStride": 16,
      "name": "floatBufferViews",
      "target": 34962
    }
  ],
  "buffers": [
    {
      "byteLength": 106224,
      "uri": "scene.bin"
    }
  ],
  "images": [
    {
      "uri": "textures/Red_apple_baseColor.png"
    },
    {
      "uri": "textures/Red_apple_metallicRoughness.png"
    },
    {
      "uri": "textures/Red_apple_normal.png"
    }
  ],
  "materials": [
    {
      "doubleSided": true,
      "name": "Red_apple",
      "normalTexture": {
        "index": 2
      },
      "pbrMetallicRoughness": {
        "baseColorTexture": {
          "index": 0
        },
        "metallicFactor": 0.0,
        "metallicRoughnessTexture": {
          "index": 1
        }
      }
    }
  ],
  "meshes": [
    {
      "name": "Red apple LOD2_Red_apple_0",
      "primitives": [
        {
          "attributes": {
            "NORMAL": 1,
            "POSITION": 0,
            "TANGENT": 2,
            "TEXCOORD_0": 3,
            "TEXCOORD_1": 4,
            "TEXCOORD_2": 5
          },
          "indices": 6,
          "material": 0,
          "mode": 4
        }
      ]
    }
  ],
  "nodes": [
    {
      "children": [
        1
      ],
      "matrix": [
        1.0,
        0.0,
        0.0,
        0.0,
        0.0,
        2.220446049250313e-16,
        -1.0,
        0.0,
        0.0,
        1.0,
        2.220446049250313e-16,
        0.0,
        0.0,
        0.0,
        0.0,
        1.0
      ],
      "name": "Sketchfab_model"
    },
    {
      "children": [
        2
      ],
      "matrix": [
        0.009999999776482582,
        0.0,
        0.0,
        0.0,
        0.0,
        0.0,
        0.009999999776482582,
        0.0,
        0.0,
        -0.009999999776482582,
        0.0,
        0.0,
        0.0,
        0.0,
        0.0,
        1.0
      ],
      "name": "red_apple_LOD1.fbx"
    },
    {
      "children": [
        3
      ],
      "name": "RootNode"
    },
    {
      "children": [
        4
      ],
      "matrix": [
        100.0,
        0.0,
        0.0,
        0.0,
        0.0,
        -1.629206793918314e-05,
        -99.99999999999868,
        0.0,
        0.0,
        99.99999999999868,
        -1.629206793918314e-05,
        0.0,
        0.0,
        26.97081184387207,
        0.0,
        1.0
      ],
      "name": "Red apple LOD2"
    },
    {
      "mesh": 0,
      "name": "Red apple LOD2_Red_apple_0"
    }
  ],
  "samplers": [
    {
      "magFilter": 9729,
      "minFilter": 9987,
      "wrapS": 10497,
      "wrapT": 10497
    }
  ],
  "scene": 0,
  "scenes": [
    {
      "name": "Sketchfab_Scene",
      "nodes": [
        0
      ]
    }
  ],
  "textures": [
    {
      "sampler": 0,
      "source": 0
    },
    {
      "sampler": 0,
      "source": 1
    },
    {
      "sampler": 0,
      "source": 2
    }
  ]
}
